<?xml version="1.0" encoding="utf-8" standalone="no"?>
<!DOCTYPE svg PUBLIC "-//W3C//DTD SVG 1.1//EN"
  "http://www.w3.org/Graphics/SVG/1.1/DTD/svg11.dtd">
<svg height="592.155469pt" version="1.1" viewBox="0 0 1111.18125 592.155469" width="1111.18125pt" xmlns="http://www.w3.org/2000/svg" xmlns:xlink="http://www.w3.org/1999/xlink">
 <metadata>
  <rdf:RDF xmlns:cc="http://creativecommons.org/ns#" xmlns:dc="http://purl.org/dc/elements/1.1/" xmlns:rdf="http://www.w3.org/1999/02/22-rdf-syntax-ns#">
   <cc:Work>
    <dc:type rdf:resource="http://purl.org/dc/dcmitype/StillImage"/>
    <dc:date>2021-08-12T16:10:53.066036</dc:date>
    <dc:format>image/svg+xml</dc:format>
    <dc:creator>
     <cc:Agent>
      <dc:title>Matplotlib v3.4.2, https://matplotlib.org/</dc:title>
     </cc:Agent>
    </dc:creator>
   </cc:Work>
  </rdf:RDF>
 </metadata>
 <defs>
  <style type="text/css">*{stroke-linecap:butt;stroke-linejoin:round;}</style>
 </defs>
 <g id="figure_1">
  <g id="patch_1">
   <path d="M 0 592.155469 
L 1111.18125 592.155469 
L 1111.18125 0 
L 0 0 
z
" style="fill:none;"/>
  </g>
  <g id="axes_1">
   <g id="patch_2">
    <path d="M 43.78125 554.599219 
L 1103.98125 554.599219 
L 1103.98125 10.999219 
L 43.78125 10.999219 
z
" style="fill:#ffffff;"/>
   </g>
   <g id="PolyCollection_1">
    <defs>
     <path d="M 91.972159 -507.78874 
L 91.972159 -494.031407 
L 112.051705 -521.96425 
L 132.13125 -530.612052 
L 152.210795 -531.522222 
L 172.290341 -535.976043 
L 192.369886 -536.721068 
L 212.449432 -534.548871 
L 232.528977 -532.533171 
L 252.608523 -534.574591 
L 272.688068 -534.76905 
L 292.767614 -533.672558 
L 312.847159 -533.804637 
L 332.926705 -533.259458 
L 353.00625 -533.438992 
L 373.085795 -539.583793 
L 393.165341 -540.118447 
L 413.244886 -541.456977 
L 433.324432 -535.5165 
L 453.403977 -537.842144 
L 473.483523 -538.08954 
L 493.563068 -538.105629 
L 513.642614 -538.12125 
L 533.722159 -539.48025 
L 553.801705 -539.689327 
L 573.88125 -541.58217 
L 593.960795 -540.233362 
L 614.040341 -540.813646 
L 634.119886 -537.750614 
L 654.199432 -537.150536 
L 674.278977 -539.66145 
L 694.358523 -537.477513 
L 714.438068 -547.027733 
L 734.517614 -542.784485 
L 754.597159 -542.308669 
L 774.676705 -540.20505 
L 794.75625 -538.185964 
L 814.835795 -540.455942 
L 834.915341 -540.99025 
L 854.994886 -541.127523 
L 875.074432 -540.20052 
L 895.153977 -538.27225 
L 915.233523 -541.06575 
L 935.313068 -539.48025 
L 955.392614 -538.87625 
L 975.472159 -534.76905 
L 995.551705 -537.66825 
L 1015.63125 -535.25225 
L 1035.710795 -535.85625 
L 1055.790341 -534.04425 
L 1055.790341 -561.22425 
L 1055.790341 -561.22425 
L 1035.710795 -555.78825 
L 1015.63125 -552.16425 
L 995.551705 -551.25825 
L 975.472159 -546.00345 
L 955.392614 -549.44625 
L 935.313068 -549.316821 
L 915.233523 -549.67275 
L 895.153977 -547.130917 
L 875.074432 -549.44625 
L 854.994886 -548.54025 
L 834.915341 -548.23825 
L 814.835795 -547.843327 
L 794.75625 -545.563393 
L 774.676705 -548.05705 
L 754.597159 -548.99325 
L 734.517614 -548.860015 
L 714.438068 -553.37225 
L 694.358523 -543.390355 
L 674.278977 -546.45645 
L 654.199432 -544.484821 
L 634.119886 -545.739886 
L 614.040341 -547.200946 
L 593.960795 -546.19975 
L 573.88125 -547.01817 
L 553.801705 -545.891942 
L 533.722159 -545.454817 
L 513.642614 -545.176725 
L 493.563068 -545.166181 
L 473.483523 -545.03705 
L 453.403977 -544.857798 
L 433.324432 -543.387375 
L 413.244886 -548.924614 
L 393.165341 -547.154603 
L 373.085795 -547.247259 
L 353.00625 -540.437842 
L 332.926705 -540.410736 
L 312.847159 -540.578179 
L 292.767614 -540.223635 
L 272.688068 -541.882282 
L 252.608523 -540.630428 
L 232.528977 -540.042186 
L 212.449432 -540.239815 
L 192.369886 -542.982764 
L 172.290341 -541.61539 
L 152.210795 -538.456076 
L 132.13125 -537.400305 
L 112.051705 -532.006694 
L 91.972159 -507.78874 
z
" id="m7207c98aa5" style="stroke:#1f77b4;stroke-opacity:0.2;"/>
    </defs>
    <g clip-path="url(#p4bebec263c)">
     <use style="fill:#1f77b4;fill-opacity:0.2;stroke:#1f77b4;stroke-opacity:0.2;" x="0" xlink:href="#m7207c98aa5" y="592.155469"/>
    </g>
   </g>
   <g id="PolyCollection_2">
    <defs>
     <path d="M 91.972159 -515.703297 
L 91.972159 -500.573097 
L 112.051705 -527.55125 
L 132.13125 -531.075654 
L 152.210795 -530.656598 
L 172.290341 -533.922443 
L 192.369886 -534.908039 
L 212.449432 -531.642297 
L 232.528977 -530.849521 
L 252.608523 -530.816901 
L 272.688068 -531.823418 
L 292.767614 -530.002096 
L 312.847159 -532.326426 
L 332.926705 -533.456574 
L 353.00625 -532.886583 
L 373.085795 -538.495299 
L 393.165341 -538.999271 
L 413.244886 -540.519405 
L 433.324432 -535.117294 
L 453.403977 -537.083734 
L 473.483523 -538.39305 
L 493.563068 -538.418043 
L 513.642614 -538.12125 
L 533.722159 -538.607806 
L 553.801705 -539.410558 
L 573.88125 -541.507878 
L 593.960795 -540.08425 
L 614.040341 -540.738802 
L 634.119886 -538.903705 
L 654.199432 -536.977964 
L 674.278977 -539.57085 
L 694.358523 -536.714566 
L 714.438068 -546.72825 
L 734.517614 -540.759309 
L 754.597159 -539.93325 
L 774.676705 -539.96345 
L 794.75625 -536.891679 
L 814.835795 -539.340865 
L 834.915341 -540.53725 
L 854.994886 -539.150795 
L 875.074432 -538.39305 
L 895.153977 -535.25225 
L 915.233523 -537.66825 
L 935.313068 -538.703679 
L 955.392614 -535.85625 
L 975.472159 -532.94799 
L 995.551705 -535.85625 
L 1015.63125 -534.64825 
L 1035.710795 -533.13825 
L 1055.790341 -534.04425 
L 1055.790341 -561.22425 
L 1055.790341 -561.22425 
L 1035.710795 -553.97625 
L 1015.63125 -552.76825 
L 995.551705 -549.89925 
L 975.472159 -544.91625 
L 955.392614 -547.33225 
L 935.313068 -547.763679 
L 915.233523 -546.27525 
L 895.153977 -544.513583 
L 875.074432 -547.81998 
L 854.994886 -546.398795 
L 834.915341 -547.93625 
L 814.835795 -546.588865 
L 794.75625 -544.527964 
L 774.676705 -547.93625 
L 754.597159 -546.8415 
L 734.517614 -547.261191 
L 714.438068 -553.374767 
L 694.358523 -543.008882 
L 674.278977 -545.915115 
L 654.199432 -543.882979 
L 634.119886 -545.744005 
L 614.040341 -546.570685 
L 593.960795 -545.975137 
L 573.88125 -546.94569 
L 553.801705 -545.334404 
L 533.722159 -544.649483 
L 513.642614 -544.662246 
L 493.563068 -544.978733 
L 473.483523 -544.73656 
L 453.403977 -543.688766 
L 433.324432 -542.710706 
L 413.244886 -548.376895 
L 393.165341 -546.036759 
L 373.085795 -545.437847 
L 353.00625 -540.085508 
L 332.926705 -540.460934 
L 312.847159 -539.148845 
L 292.767614 -536.275565 
L 272.688068 -539.210715 
L 252.608523 -537.89033 
L 232.528977 -538.315393 
L 212.449432 -537.374327 
L 192.369886 -541.374614 
L 172.290341 -540.28659 
L 152.210795 -537.787409 
L 132.13125 -537.900533 
L 112.051705 -535.819444 
L 91.972159 -515.703297 
z
" id="m4f7420791d" style="stroke:#ff7f0e;stroke-opacity:0.2;"/>
    </defs>
    <g clip-path="url(#p4bebec263c)">
     <use style="fill:#ff7f0e;fill-opacity:0.2;stroke:#ff7f0e;stroke-opacity:0.2;" x="0" xlink:href="#m4f7420791d" y="592.155469"/>
    </g>
   </g>
   <g id="PolyCollection_3">
    <defs>
     <path d="M 91.972159 -516.701746 
L 91.972159 -501.720389 
L 112.051705 -529.249056 
L 132.13125 -532.847173 
L 152.210795 -532.270657 
L 172.290341 -534.16505 
L 192.369886 -534.207948 
L 212.449432 -530.42025 
L 232.528977 -529.857236 
L 252.608523 -528.38617 
L 272.688068 -529.19715 
L 292.767614 -525.401242 
L 312.847159 -529.513058 
L 332.926705 -530.810809 
L 353.00625 -529.563325 
L 373.085795 -536.371376 
L 393.165341 -536.176015 
L 413.244886 -537.996332 
L 433.324432 -532.175625 
L 453.403977 -536.088595 
L 473.483523 -536.81812 
L 493.563068 -537.47924 
L 513.642614 -536.631204 
L 533.722159 -536.525683 
L 553.801705 -538.643942 
L 573.88125 -540.35001 
L 593.960795 -539.025363 
L 614.040341 -539.874163 
L 634.119886 -538.986068 
L 654.199432 -537.581964 
L 674.278977 -539.930985 
L 694.358523 -536.521445 
L 714.438068 -545.419583 
L 734.517614 -540.546132 
L 754.597159 -538.571419 
L 774.676705 -539.23865 
L 794.75625 -537.406157 
L 814.835795 -538.086404 
L 834.915341 -539.627475 
L 854.994886 -538.158314 
L 875.074432 -537.12012 
L 895.153977 -535.654917 
L 915.233523 -536.98875 
L 935.313068 -538.703679 
L 955.392614 -535.25225 
L 975.472159 -531.50745 
L 995.551705 -537.21525 
L 1015.63125 -531.02425 
L 1035.710795 -533.13825 
L 1055.790341 -535.81095 
L 1055.790341 -561.22425 
L 1055.790341 -561.22425 
L 1035.710795 -553.97625 
L 1015.63125 -550.36735 
L 995.551705 -550.80525 
L 975.472159 -543.10425 
L 955.392614 -546.42625 
L 935.313068 -548.281393 
L 915.233523 -545.82225 
L 895.153977 -544.317283 
L 875.074432 -546.54705 
L 854.994886 -545.245705 
L 834.915341 -547.185025 
L 814.835795 -545.891942 
L 794.75625 -544.657393 
L 774.676705 -547.33527 
L 754.597159 -545.82225 
L 734.517614 -546.834838 
L 714.438068 -552.365583 
L 694.358523 -542.722776 
L 674.278977 -546.18465 
L 654.199432 -544.657393 
L 634.119886 -545.904614 
L 614.040341 -545.861641 
L 593.960795 -544.84075 
L 573.88125 -545.71353 
L 553.801705 -544.91625 
L 533.722159 -543.307261 
L 513.642614 -543.300011 
L 493.563068 -544.541353 
L 473.483523 -543.58896 
L 453.403977 -542.521195 
L 433.324432 -540.329625 
L 413.244886 -545.959523 
L 393.165341 -543.424015 
L 373.085795 -543.313924 
L 353.00625 -537.317175 
L 332.926705 -538.697907 
L 312.847159 -536.666882 
L 292.767614 -532.140488 
L 272.688068 -536.718083 
L 252.608523 -535.502689 
L 232.528977 -537.323107 
L 212.449432 -536.404064 
L 192.369886 -540.962795 
L 172.290341 -540.689257 
L 152.210795 -539.205496 
L 132.13125 -539.713497 
L 112.051705 -536.649944 
L 91.972159 -516.701746 
z
" id="m0d7c8fe7f0" style="stroke:#2ca02c;stroke-opacity:0.2;"/>
    </defs>
    <g clip-path="url(#p4bebec263c)">
     <use style="fill:#2ca02c;fill-opacity:0.2;stroke:#2ca02c;stroke-opacity:0.2;" x="0" xlink:href="#m0d7c8fe7f0" y="592.155469"/>
    </g>
   </g>
   <g id="PolyCollection_4">
    <defs>
     <path d="M 91.972159 -512.636764 
L 91.972159 -497.763572 
L 112.051705 -524.001806 
L 132.13125 -529.186548 
L 152.210795 -530.142541 
L 172.290341 -533.722117 
L 192.369886 -535.773886 
L 212.449432 -531.641243 
L 232.528977 -532.230093 
L 252.608523 -532.983567 
L 272.688068 -533.04765 
L 292.767614 -532.602781 
L 312.847159 -533.945305 
L 332.926705 -533.799385 
L 353.00625 -534.193992 
L 373.085795 -539.014307 
L 393.165341 -539.586838 
L 413.244886 -541.071241 
L 433.324432 -535.854834 
L 453.403977 -538.42666 
L 473.483523 -538.87625 
L 493.563068 -538.418043 
L 513.642614 -538.57425 
L 533.722159 -539.075906 
L 553.801705 -538.922712 
L 573.88125 -541.79961 
L 593.960795 -540.08425 
L 614.040341 -541.211498 
L 634.119886 -538.738977 
L 654.199432 -537.234664 
L 674.278977 -540.474585 
L 694.358523 -536.80755 
L 714.438068 -547.63425 
L 734.517614 -541.718603 
L 754.597159 -541.179 
L 774.676705 -540.20505 
L 794.75625 -537.66825 
L 814.835795 -540.595327 
L 834.915341 -540.83925 
L 854.994886 -539.48025 
L 875.074432 -539.83812 
L 895.153977 -536.05255 
L 915.233523 -539.25375 
L 935.313068 -539.739107 
L 955.392614 -537.36625 
L 975.472159 -534.04425 
L 995.551705 -536.76225 
L 1015.63125 -534.04425 
L 1035.710795 -534.0216 
L 1055.790341 -534.04425 
L 1055.790341 -561.22425 
L 1055.790341 -561.22425 
L 1035.710795 -554.88225 
L 1015.63125 -552.76825 
L 995.551705 -550.80525 
L 975.472159 -546.00345 
L 955.392614 -547.93625 
L 935.313068 -549.575679 
L 915.233523 -548.08725 
L 895.153977 -545.32395 
L 875.074432 -548.54025 
L 854.994886 -547.387159 
L 834.915341 -548.54025 
L 814.835795 -547.564558 
L 794.75625 -545.304536 
L 774.676705 -548.30167 
L 754.597159 -548.203331 
L 734.517614 -548.007309 
L 714.438068 -553.676767 
L 694.358523 -543.202003 
L 674.278977 -546.81885 
L 654.199432 -544.139679 
L 634.119886 -545.82225 
L 614.040341 -546.964598 
L 593.960795 -546.04875 
L 573.88125 -546.87321 
L 553.801705 -545.752558 
L 533.722159 -545.253483 
L 513.642614 -545.36925 
L 493.563068 -545.791009 
L 473.483523 -545.40096 
L 453.403977 -545.033153 
L 433.324432 -543.33075 
L 413.244886 -548.541623 
L 393.165341 -546.195309 
L 373.085795 -546.57423 
L 353.00625 -541.343842 
L 332.926705 -541.096358 
L 312.847159 -540.481618 
L 292.767614 -538.645104 
L 272.688068 -540.749783 
L 252.608523 -539.260379 
L 232.528977 -539.091964 
L 212.449432 -537.163629 
L 192.369886 -541.828643 
L 172.290341 -540.085257 
L 152.210795 -536.880424 
L 132.13125 -535.97191 
L 112.051705 -532.6475 
L 91.972159 -512.636764 
z
" id="mb2c9532f0a" style="stroke:#d62728;stroke-opacity:0.2;"/>
    </defs>
    <g clip-path="url(#p4bebec263c)">
     <use style="fill:#d62728;fill-opacity:0.2;stroke:#d62728;stroke-opacity:0.2;" x="0" xlink:href="#mb2c9532f0a" y="592.155469"/>
    </g>
   </g>
   <g id="matplotlib.axis_1">
    <g id="xtick_1">
     <g id="line2d_1">
      <defs>
       <path d="M 0 0 
L 0 3.5 
" id="m25e546dab6" style="stroke:#000000;stroke-width:0.8;"/>
      </defs>
      <g>
       <use style="stroke:#000000;stroke-width:0.8;" x="71.892614" xlink:href="#m25e546dab6" y="554.599219"/>
      </g>
     </g>
     <g id="text_1">
      <!-- 0.0 -->
      <g transform="translate(63.941051 569.197656)scale(0.1 -0.1)">
       <defs>
        <path d="M 2034 4250 
Q 1547 4250 1301 3770 
Q 1056 3291 1056 2328 
Q 1056 1369 1301 889 
Q 1547 409 2034 409 
Q 2525 409 2770 889 
Q 3016 1369 3016 2328 
Q 3016 3291 2770 3770 
Q 2525 4250 2034 4250 
z
M 2034 4750 
Q 2819 4750 3233 4129 
Q 3647 3509 3647 2328 
Q 3647 1150 3233 529 
Q 2819 -91 2034 -91 
Q 1250 -91 836 529 
Q 422 1150 422 2328 
Q 422 3509 836 4129 
Q 1250 4750 2034 4750 
z
" id="DejaVuSans-30" transform="scale(0.015625)"/>
        <path d="M 684 794 
L 1344 794 
L 1344 0 
L 684 0 
L 684 794 
z
" id="DejaVuSans-2e" transform="scale(0.015625)"/>
       </defs>
       <use xlink:href="#DejaVuSans-30"/>
       <use x="63.623047" xlink:href="#DejaVuSans-2e"/>
       <use x="95.410156" xlink:href="#DejaVuSans-30"/>
      </g>
     </g>
    </g>
    <g id="xtick_2">
     <g id="line2d_2">
      <g>
       <use style="stroke:#000000;stroke-width:0.8;" x="272.688068" xlink:href="#m25e546dab6" y="554.599219"/>
      </g>
     </g>
     <g id="text_2">
      <!-- 0.2 -->
      <g transform="translate(264.736506 569.197656)scale(0.1 -0.1)">
       <defs>
        <path d="M 1228 531 
L 3431 531 
L 3431 0 
L 469 0 
L 469 531 
Q 828 903 1448 1529 
Q 2069 2156 2228 2338 
Q 2531 2678 2651 2914 
Q 2772 3150 2772 3378 
Q 2772 3750 2511 3984 
Q 2250 4219 1831 4219 
Q 1534 4219 1204 4116 
Q 875 4013 500 3803 
L 500 4441 
Q 881 4594 1212 4672 
Q 1544 4750 1819 4750 
Q 2544 4750 2975 4387 
Q 3406 4025 3406 3419 
Q 3406 3131 3298 2873 
Q 3191 2616 2906 2266 
Q 2828 2175 2409 1742 
Q 1991 1309 1228 531 
z
" id="DejaVuSans-32" transform="scale(0.015625)"/>
       </defs>
       <use xlink:href="#DejaVuSans-30"/>
       <use x="63.623047" xlink:href="#DejaVuSans-2e"/>
       <use x="95.410156" xlink:href="#DejaVuSans-32"/>
      </g>
     </g>
    </g>
    <g id="xtick_3">
     <g id="line2d_3">
      <g>
       <use style="stroke:#000000;stroke-width:0.8;" x="473.483523" xlink:href="#m25e546dab6" y="554.599219"/>
      </g>
     </g>
     <g id="text_3">
      <!-- 0.4 -->
      <g transform="translate(465.53196 569.197656)scale(0.1 -0.1)">
       <defs>
        <path d="M 2419 4116 
L 825 1625 
L 2419 1625 
L 2419 4116 
z
M 2253 4666 
L 3047 4666 
L 3047 1625 
L 3713 1625 
L 3713 1100 
L 3047 1100 
L 3047 0 
L 2419 0 
L 2419 1100 
L 313 1100 
L 313 1709 
L 2253 4666 
z
" id="DejaVuSans-34" transform="scale(0.015625)"/>
       </defs>
       <use xlink:href="#DejaVuSans-30"/>
       <use x="63.623047" xlink:href="#DejaVuSans-2e"/>
       <use x="95.410156" xlink:href="#DejaVuSans-34"/>
      </g>
     </g>
    </g>
    <g id="xtick_4">
     <g id="line2d_4">
      <g>
       <use style="stroke:#000000;stroke-width:0.8;" x="674.278977" xlink:href="#m25e546dab6" y="554.599219"/>
      </g>
     </g>
     <g id="text_4">
      <!-- 0.6 -->
      <g transform="translate(666.327415 569.197656)scale(0.1 -0.1)">
       <defs>
        <path d="M 2113 2584 
Q 1688 2584 1439 2293 
Q 1191 2003 1191 1497 
Q 1191 994 1439 701 
Q 1688 409 2113 409 
Q 2538 409 2786 701 
Q 3034 994 3034 1497 
Q 3034 2003 2786 2293 
Q 2538 2584 2113 2584 
z
M 3366 4563 
L 3366 3988 
Q 3128 4100 2886 4159 
Q 2644 4219 2406 4219 
Q 1781 4219 1451 3797 
Q 1122 3375 1075 2522 
Q 1259 2794 1537 2939 
Q 1816 3084 2150 3084 
Q 2853 3084 3261 2657 
Q 3669 2231 3669 1497 
Q 3669 778 3244 343 
Q 2819 -91 2113 -91 
Q 1303 -91 875 529 
Q 447 1150 447 2328 
Q 447 3434 972 4092 
Q 1497 4750 2381 4750 
Q 2619 4750 2861 4703 
Q 3103 4656 3366 4563 
z
" id="DejaVuSans-36" transform="scale(0.015625)"/>
       </defs>
       <use xlink:href="#DejaVuSans-30"/>
       <use x="63.623047" xlink:href="#DejaVuSans-2e"/>
       <use x="95.410156" xlink:href="#DejaVuSans-36"/>
      </g>
     </g>
    </g>
    <g id="xtick_5">
     <g id="line2d_5">
      <g>
       <use style="stroke:#000000;stroke-width:0.8;" x="875.074432" xlink:href="#m25e546dab6" y="554.599219"/>
      </g>
     </g>
     <g id="text_5">
      <!-- 0.8 -->
      <g transform="translate(867.122869 569.197656)scale(0.1 -0.1)">
       <defs>
        <path d="M 2034 2216 
Q 1584 2216 1326 1975 
Q 1069 1734 1069 1313 
Q 1069 891 1326 650 
Q 1584 409 2034 409 
Q 2484 409 2743 651 
Q 3003 894 3003 1313 
Q 3003 1734 2745 1975 
Q 2488 2216 2034 2216 
z
M 1403 2484 
Q 997 2584 770 2862 
Q 544 3141 544 3541 
Q 544 4100 942 4425 
Q 1341 4750 2034 4750 
Q 2731 4750 3128 4425 
Q 3525 4100 3525 3541 
Q 3525 3141 3298 2862 
Q 3072 2584 2669 2484 
Q 3125 2378 3379 2068 
Q 3634 1759 3634 1313 
Q 3634 634 3220 271 
Q 2806 -91 2034 -91 
Q 1263 -91 848 271 
Q 434 634 434 1313 
Q 434 1759 690 2068 
Q 947 2378 1403 2484 
z
M 1172 3481 
Q 1172 3119 1398 2916 
Q 1625 2713 2034 2713 
Q 2441 2713 2670 2916 
Q 2900 3119 2900 3481 
Q 2900 3844 2670 4047 
Q 2441 4250 2034 4250 
Q 1625 4250 1398 4047 
Q 1172 3844 1172 3481 
z
" id="DejaVuSans-38" transform="scale(0.015625)"/>
       </defs>
       <use xlink:href="#DejaVuSans-30"/>
       <use x="63.623047" xlink:href="#DejaVuSans-2e"/>
       <use x="95.410156" xlink:href="#DejaVuSans-38"/>
      </g>
     </g>
    </g>
    <g id="xtick_6">
     <g id="line2d_6">
      <g>
       <use style="stroke:#000000;stroke-width:0.8;" x="1075.869886" xlink:href="#m25e546dab6" y="554.599219"/>
      </g>
     </g>
     <g id="text_6">
      <!-- 1.0 -->
      <g transform="translate(1067.918324 569.197656)scale(0.1 -0.1)">
       <defs>
        <path d="M 794 531 
L 1825 531 
L 1825 4091 
L 703 3866 
L 703 4441 
L 1819 4666 
L 2450 4666 
L 2450 531 
L 3481 531 
L 3481 0 
L 794 0 
L 794 531 
z
" id="DejaVuSans-31" transform="scale(0.015625)"/>
       </defs>
       <use xlink:href="#DejaVuSans-31"/>
       <use x="63.623047" xlink:href="#DejaVuSans-2e"/>
       <use x="95.410156" xlink:href="#DejaVuSans-30"/>
      </g>
     </g>
    </g>
    <g id="text_7">
     <!-- train ratio -->
     <g transform="translate(549.126562 582.875781)scale(0.1 -0.1)">
      <defs>
       <path d="M 1172 4494 
L 1172 3500 
L 2356 3500 
L 2356 3053 
L 1172 3053 
L 1172 1153 
Q 1172 725 1289 603 
Q 1406 481 1766 481 
L 2356 481 
L 2356 0 
L 1766 0 
Q 1100 0 847 248 
Q 594 497 594 1153 
L 594 3053 
L 172 3053 
L 172 3500 
L 594 3500 
L 594 4494 
L 1172 4494 
z
" id="DejaVuSans-74" transform="scale(0.015625)"/>
       <path d="M 2631 2963 
Q 2534 3019 2420 3045 
Q 2306 3072 2169 3072 
Q 1681 3072 1420 2755 
Q 1159 2438 1159 1844 
L 1159 0 
L 581 0 
L 581 3500 
L 1159 3500 
L 1159 2956 
Q 1341 3275 1631 3429 
Q 1922 3584 2338 3584 
Q 2397 3584 2469 3576 
Q 2541 3569 2628 3553 
L 2631 2963 
z
" id="DejaVuSans-72" transform="scale(0.015625)"/>
       <path d="M 2194 1759 
Q 1497 1759 1228 1600 
Q 959 1441 959 1056 
Q 959 750 1161 570 
Q 1363 391 1709 391 
Q 2188 391 2477 730 
Q 2766 1069 2766 1631 
L 2766 1759 
L 2194 1759 
z
M 3341 1997 
L 3341 0 
L 2766 0 
L 2766 531 
Q 2569 213 2275 61 
Q 1981 -91 1556 -91 
Q 1019 -91 701 211 
Q 384 513 384 1019 
Q 384 1609 779 1909 
Q 1175 2209 1959 2209 
L 2766 2209 
L 2766 2266 
Q 2766 2663 2505 2880 
Q 2244 3097 1772 3097 
Q 1472 3097 1187 3025 
Q 903 2953 641 2809 
L 641 3341 
Q 956 3463 1253 3523 
Q 1550 3584 1831 3584 
Q 2591 3584 2966 3190 
Q 3341 2797 3341 1997 
z
" id="DejaVuSans-61" transform="scale(0.015625)"/>
       <path d="M 603 3500 
L 1178 3500 
L 1178 0 
L 603 0 
L 603 3500 
z
M 603 4863 
L 1178 4863 
L 1178 4134 
L 603 4134 
L 603 4863 
z
" id="DejaVuSans-69" transform="scale(0.015625)"/>
       <path d="M 3513 2113 
L 3513 0 
L 2938 0 
L 2938 2094 
Q 2938 2591 2744 2837 
Q 2550 3084 2163 3084 
Q 1697 3084 1428 2787 
Q 1159 2491 1159 1978 
L 1159 0 
L 581 0 
L 581 3500 
L 1159 3500 
L 1159 2956 
Q 1366 3272 1645 3428 
Q 1925 3584 2291 3584 
Q 2894 3584 3203 3211 
Q 3513 2838 3513 2113 
z
" id="DejaVuSans-6e" transform="scale(0.015625)"/>
       <path id="DejaVuSans-20" transform="scale(0.015625)"/>
       <path d="M 1959 3097 
Q 1497 3097 1228 2736 
Q 959 2375 959 1747 
Q 959 1119 1226 758 
Q 1494 397 1959 397 
Q 2419 397 2687 759 
Q 2956 1122 2956 1747 
Q 2956 2369 2687 2733 
Q 2419 3097 1959 3097 
z
M 1959 3584 
Q 2709 3584 3137 3096 
Q 3566 2609 3566 1747 
Q 3566 888 3137 398 
Q 2709 -91 1959 -91 
Q 1206 -91 779 398 
Q 353 888 353 1747 
Q 353 2609 779 3096 
Q 1206 3584 1959 3584 
z
" id="DejaVuSans-6f" transform="scale(0.015625)"/>
      </defs>
      <use xlink:href="#DejaVuSans-74"/>
      <use x="39.208984" xlink:href="#DejaVuSans-72"/>
      <use x="80.322266" xlink:href="#DejaVuSans-61"/>
      <use x="141.601562" xlink:href="#DejaVuSans-69"/>
      <use x="169.384766" xlink:href="#DejaVuSans-6e"/>
      <use x="232.763672" xlink:href="#DejaVuSans-20"/>
      <use x="264.550781" xlink:href="#DejaVuSans-72"/>
      <use x="305.664062" xlink:href="#DejaVuSans-61"/>
      <use x="366.943359" xlink:href="#DejaVuSans-74"/>
      <use x="406.152344" xlink:href="#DejaVuSans-69"/>
      <use x="433.935547" xlink:href="#DejaVuSans-6f"/>
     </g>
    </g>
   </g>
   <g id="matplotlib.axis_2">
    <g id="ytick_1">
     <g id="line2d_7">
      <defs>
       <path d="M 0 0 
L -3.5 0 
" id="m8c40f2630e" style="stroke:#000000;stroke-width:0.8;"/>
      </defs>
      <g>
       <use style="stroke:#000000;stroke-width:0.8;" x="43.78125" xlink:href="#m8c40f2630e" y="554.599219"/>
      </g>
     </g>
     <g id="text_8">
      <!-- 0.0 -->
      <g transform="translate(20.878125 558.398438)scale(0.1 -0.1)">
       <use xlink:href="#DejaVuSans-30"/>
       <use x="63.623047" xlink:href="#DejaVuSans-2e"/>
       <use x="95.410156" xlink:href="#DejaVuSans-30"/>
      </g>
     </g>
    </g>
    <g id="ytick_2">
     <g id="line2d_8">
      <g>
       <use style="stroke:#000000;stroke-width:0.8;" x="43.78125" xlink:href="#m8c40f2630e" y="445.879219"/>
      </g>
     </g>
     <g id="text_9">
      <!-- 0.2 -->
      <g transform="translate(20.878125 449.678437)scale(0.1 -0.1)">
       <use xlink:href="#DejaVuSans-30"/>
       <use x="63.623047" xlink:href="#DejaVuSans-2e"/>
       <use x="95.410156" xlink:href="#DejaVuSans-32"/>
      </g>
     </g>
    </g>
    <g id="ytick_3">
     <g id="line2d_9">
      <g>
       <use style="stroke:#000000;stroke-width:0.8;" x="43.78125" xlink:href="#m8c40f2630e" y="337.159219"/>
      </g>
     </g>
     <g id="text_10">
      <!-- 0.4 -->
      <g transform="translate(20.878125 340.958437)scale(0.1 -0.1)">
       <use xlink:href="#DejaVuSans-30"/>
       <use x="63.623047" xlink:href="#DejaVuSans-2e"/>
       <use x="95.410156" xlink:href="#DejaVuSans-34"/>
      </g>
     </g>
    </g>
    <g id="ytick_4">
     <g id="line2d_10">
      <g>
       <use style="stroke:#000000;stroke-width:0.8;" x="43.78125" xlink:href="#m8c40f2630e" y="228.439219"/>
      </g>
     </g>
     <g id="text_11">
      <!-- 0.6 -->
      <g transform="translate(20.878125 232.238437)scale(0.1 -0.1)">
       <use xlink:href="#DejaVuSans-30"/>
       <use x="63.623047" xlink:href="#DejaVuSans-2e"/>
       <use x="95.410156" xlink:href="#DejaVuSans-36"/>
      </g>
     </g>
    </g>
    <g id="ytick_5">
     <g id="line2d_11">
      <g>
       <use style="stroke:#000000;stroke-width:0.8;" x="43.78125" xlink:href="#m8c40f2630e" y="119.719219"/>
      </g>
     </g>
     <g id="text_12">
      <!-- 0.8 -->
      <g transform="translate(20.878125 123.518437)scale(0.1 -0.1)">
       <use xlink:href="#DejaVuSans-30"/>
       <use x="63.623047" xlink:href="#DejaVuSans-2e"/>
       <use x="95.410156" xlink:href="#DejaVuSans-38"/>
      </g>
     </g>
    </g>
    <g id="ytick_6">
     <g id="line2d_12">
      <g>
       <use style="stroke:#000000;stroke-width:0.8;" x="43.78125" xlink:href="#m8c40f2630e" y="10.999219"/>
      </g>
     </g>
     <g id="text_13">
      <!-- 1.0 -->
      <g transform="translate(20.878125 14.798437)scale(0.1 -0.1)">
       <use xlink:href="#DejaVuSans-31"/>
       <use x="63.623047" xlink:href="#DejaVuSans-2e"/>
       <use x="95.410156" xlink:href="#DejaVuSans-30"/>
      </g>
     </g>
    </g>
    <g id="text_14">
     <!-- base acc ratio -->
     <g transform="translate(14.798437 317.9875)rotate(-90)scale(0.1 -0.1)">
      <defs>
       <path d="M 3116 1747 
Q 3116 2381 2855 2742 
Q 2594 3103 2138 3103 
Q 1681 3103 1420 2742 
Q 1159 2381 1159 1747 
Q 1159 1113 1420 752 
Q 1681 391 2138 391 
Q 2594 391 2855 752 
Q 3116 1113 3116 1747 
z
M 1159 2969 
Q 1341 3281 1617 3432 
Q 1894 3584 2278 3584 
Q 2916 3584 3314 3078 
Q 3713 2572 3713 1747 
Q 3713 922 3314 415 
Q 2916 -91 2278 -91 
Q 1894 -91 1617 61 
Q 1341 213 1159 525 
L 1159 0 
L 581 0 
L 581 4863 
L 1159 4863 
L 1159 2969 
z
" id="DejaVuSans-62" transform="scale(0.015625)"/>
       <path d="M 2834 3397 
L 2834 2853 
Q 2591 2978 2328 3040 
Q 2066 3103 1784 3103 
Q 1356 3103 1142 2972 
Q 928 2841 928 2578 
Q 928 2378 1081 2264 
Q 1234 2150 1697 2047 
L 1894 2003 
Q 2506 1872 2764 1633 
Q 3022 1394 3022 966 
Q 3022 478 2636 193 
Q 2250 -91 1575 -91 
Q 1294 -91 989 -36 
Q 684 19 347 128 
L 347 722 
Q 666 556 975 473 
Q 1284 391 1588 391 
Q 1994 391 2212 530 
Q 2431 669 2431 922 
Q 2431 1156 2273 1281 
Q 2116 1406 1581 1522 
L 1381 1569 
Q 847 1681 609 1914 
Q 372 2147 372 2553 
Q 372 3047 722 3315 
Q 1072 3584 1716 3584 
Q 2034 3584 2315 3537 
Q 2597 3491 2834 3397 
z
" id="DejaVuSans-73" transform="scale(0.015625)"/>
       <path d="M 3597 1894 
L 3597 1613 
L 953 1613 
Q 991 1019 1311 708 
Q 1631 397 2203 397 
Q 2534 397 2845 478 
Q 3156 559 3463 722 
L 3463 178 
Q 3153 47 2828 -22 
Q 2503 -91 2169 -91 
Q 1331 -91 842 396 
Q 353 884 353 1716 
Q 353 2575 817 3079 
Q 1281 3584 2069 3584 
Q 2775 3584 3186 3129 
Q 3597 2675 3597 1894 
z
M 3022 2063 
Q 3016 2534 2758 2815 
Q 2500 3097 2075 3097 
Q 1594 3097 1305 2825 
Q 1016 2553 972 2059 
L 3022 2063 
z
" id="DejaVuSans-65" transform="scale(0.015625)"/>
       <path d="M 3122 3366 
L 3122 2828 
Q 2878 2963 2633 3030 
Q 2388 3097 2138 3097 
Q 1578 3097 1268 2742 
Q 959 2388 959 1747 
Q 959 1106 1268 751 
Q 1578 397 2138 397 
Q 2388 397 2633 464 
Q 2878 531 3122 666 
L 3122 134 
Q 2881 22 2623 -34 
Q 2366 -91 2075 -91 
Q 1284 -91 818 406 
Q 353 903 353 1747 
Q 353 2603 823 3093 
Q 1294 3584 2113 3584 
Q 2378 3584 2631 3529 
Q 2884 3475 3122 3366 
z
" id="DejaVuSans-63" transform="scale(0.015625)"/>
      </defs>
      <use xlink:href="#DejaVuSans-62"/>
      <use x="63.476562" xlink:href="#DejaVuSans-61"/>
      <use x="124.755859" xlink:href="#DejaVuSans-73"/>
      <use x="176.855469" xlink:href="#DejaVuSans-65"/>
      <use x="238.378906" xlink:href="#DejaVuSans-20"/>
      <use x="270.166016" xlink:href="#DejaVuSans-61"/>
      <use x="331.445312" xlink:href="#DejaVuSans-63"/>
      <use x="386.425781" xlink:href="#DejaVuSans-63"/>
      <use x="441.40625" xlink:href="#DejaVuSans-20"/>
      <use x="473.193359" xlink:href="#DejaVuSans-72"/>
      <use x="514.306641" xlink:href="#DejaVuSans-61"/>
      <use x="575.585938" xlink:href="#DejaVuSans-74"/>
      <use x="614.794922" xlink:href="#DejaVuSans-69"/>
      <use x="642.578125" xlink:href="#DejaVuSans-6f"/>
     </g>
    </g>
   </g>
   <g id="line2d_13">
    <path clip-path="url(#p4bebec263c)" d="M 91.972159 91.023055 
L 112.051705 65.094969 
L 132.13125 57.995559 
L 152.210795 57.165827 
L 172.290341 53.400019 
L 192.369886 52.304582 
L 212.449432 54.782195 
L 232.528977 55.738362 
L 252.608523 54.619804 
L 272.688068 53.717119 
L 292.767614 55.13768 
L 312.847159 54.916377 
L 332.926705 55.17284 
L 353.00625 55.292552 
L 373.085795 48.895904 
L 393.165341 48.624866 
L 413.244886 46.964673 
L 433.324432 52.505344 
L 453.403977 50.687864 
L 473.483523 50.561219 
L 493.563068 50.488322 
L 513.642614 50.604362 
L 533.722159 49.588108 
L 553.801705 49.190603 
L 573.88125 47.674099 
L 593.960795 48.975719 
L 614.040341 47.948262 
L 634.119886 50.286673 
L 654.199432 51.294647 
L 674.278977 49.051219 
L 694.358523 51.816903 
L 714.438068 42.004552 
L 734.517614 46.279925 
L 754.597159 46.672969 
L 774.676705 47.964019 
L 794.75625 50.216076 
L 814.835795 47.936142 
L 834.915341 47.541219 
L 854.994886 47.239219 
L 875.074432 47.420419 
L 895.153977 49.655219 
L 915.233523 46.786219 
L 935.313068 47.498076 
L 955.392614 48.145219 
L 975.472159 51.950419 
L 995.551705 47.239219 
L 1015.63125 48.447219 
L 1035.710795 46.333219 
L 1055.790341 43.615219 
" style="fill:none;stroke:#1f77b4;stroke-linecap:square;stroke-width:1.5;"/>
   </g>
   <g id="line2d_14">
    <path clip-path="url(#p4bebec263c)" d="M 91.972159 83.40526 
L 112.051705 60.413969 
L 132.13125 57.610027 
L 152.210795 57.83548 
L 172.290341 55.131485 
L 192.369886 53.869491 
L 212.449432 57.605544 
L 232.528977 57.334647 
L 252.608523 57.757658 
L 272.688068 56.480419 
L 292.767614 59.179834 
L 312.847159 56.442271 
L 332.926705 55.319759 
L 353.00625 55.695219 
L 373.085795 50.034876 
L 393.165341 49.477572 
L 413.244886 47.623582 
L 433.324432 53.184844 
L 453.403977 51.798445 
L 473.483523 50.621619 
L 493.563068 50.425839 
L 513.642614 50.604362 
L 533.722159 50.460552 
L 553.801705 49.608757 
L 573.88125 47.891539 
L 593.960795 48.975719 
L 614.040341 48.578523 
L 634.119886 49.792491 
L 654.199432 51.63979 
L 674.278977 49.323019 
L 694.358523 52.293745 
L 714.438068 42.105219 
L 734.517614 48.198513 
L 754.597159 48.371719 
L 774.676705 48.205619 
L 794.75625 51.251504 
L 814.835795 49.329988 
L 834.915341 47.843219 
L 854.994886 49.380673 
L 875.074432 49.051219 
L 895.153977 52.272552 
L 915.233523 50.410219 
L 935.313068 48.792362 
L 955.392614 50.259219 
L 975.472159 53.400019 
L 995.551705 49.051219 
L 1015.63125 48.447219 
L 1035.710795 48.145219 
L 1055.790341 43.615219 
" style="fill:none;stroke:#ff7f0e;stroke-linecap:square;stroke-width:1.5;"/>
   </g>
   <g id="line2d_15">
    <path clip-path="url(#p4bebec263c)" d="M 91.972159 82.48077 
L 112.051705 59.205969 
L 132.13125 55.759474 
L 152.210795 56.259827 
L 172.290341 54.809352 
L 192.369886 54.610764 
L 212.449432 58.616893 
L 232.528977 58.58579 
L 252.608523 60.144194 
L 272.688068 59.153119 
L 292.767614 63.26845 
L 312.847159 59.112587 
L 332.926705 57.47457 
L 353.00625 58.916552 
L 373.085795 52.468133 
L 393.165341 52.142278 
L 413.244886 50.039582 
L 433.324432 56.072719 
L 453.403977 52.675219 
L 473.483523 51.829619 
L 493.563068 51.175633 
L 513.642614 52.157504 
L 533.722159 52.205441 
L 553.801705 50.30568 
L 573.88125 49.196179 
L 593.960795 50.259219 
L 614.040341 49.287567 
L 634.119886 49.627764 
L 654.199432 51.294647 
L 674.278977 49.141819 
L 694.358523 52.484482 
L 714.438068 43.212552 
L 734.517614 48.518278 
L 754.597159 50.183719 
L 774.676705 48.688819 
L 794.75625 51.122076 
L 814.835795 50.166296 
L 834.915341 48.749219 
L 854.994886 50.039582 
L 875.074432 50.319619 
L 895.153977 52.272552 
L 915.233523 50.410219 
L 935.313068 48.792362 
L 955.392614 51.165219 
L 975.472159 54.849619 
L 995.551705 48.145219 
L 1015.63125 51.467219 
L 1035.710795 48.145219 
L 1055.790341 43.615219 
" style="fill:none;stroke:#2ca02c;stroke-linecap:square;stroke-width:1.5;"/>
   </g>
   <g id="line2d_16">
    <path clip-path="url(#p4bebec263c)" d="M 91.972159 86.437586 
L 112.051705 63.584969 
L 132.13125 59.422027 
L 152.210795 58.662697 
L 172.290341 55.252285 
L 192.369886 53.37531 
L 212.449432 57.647684 
L 232.528977 56.514933 
L 252.608523 55.901463 
L 272.688068 55.302619 
L 292.767614 56.577988 
L 312.847159 54.916377 
L 332.926705 54.732084 
L 353.00625 54.487219 
L 373.085795 49.413619 
L 393.165341 49.317689 
L 413.244886 47.349037 
L 433.324432 52.561969 
L 453.403977 50.512509 
L 473.483523 49.957219 
L 493.563068 49.98846 
L 513.642614 50.216076 
L 533.722159 49.923663 
L 553.801705 49.67845 
L 573.88125 47.746579 
L 593.960795 49.051219 
L 614.040341 48.105827 
L 634.119886 49.710128 
L 654.199432 51.294647 
L 674.278977 48.688819 
L 694.358523 52.103008 
L 714.438068 41.400552 
L 734.517614 47.239219 
L 754.597159 47.352469 
L 774.676705 47.722419 
L 794.75625 50.604362 
L 814.835795 48.075526 
L 834.915341 47.390219 
L 854.994886 48.721764 
L 875.074432 48.145219 
L 895.153977 51.265885 
L 915.233523 48.371719 
L 935.313068 47.498076 
L 955.392614 49.655219 
L 975.472159 52.312819 
L 995.551705 48.145219 
L 1015.63125 48.447219 
L 1035.710795 47.239219 
L 1055.790341 43.615219 
" style="fill:none;stroke:#d62728;stroke-linecap:square;stroke-width:1.5;"/>
   </g>
   <g id="patch_3">
    <path d="M 43.78125 554.599219 
L 43.78125 10.999219 
" style="fill:none;stroke:#000000;stroke-linecap:square;stroke-linejoin:miter;stroke-width:0.8;"/>
   </g>
   <g id="patch_4">
    <path d="M 1103.98125 554.599219 
L 1103.98125 10.999219 
" style="fill:none;stroke:#000000;stroke-linecap:square;stroke-linejoin:miter;stroke-width:0.8;"/>
   </g>
   <g id="patch_5">
    <path d="M 43.78125 554.599219 
L 1103.98125 554.599219 
" style="fill:none;stroke:#000000;stroke-linecap:square;stroke-linejoin:miter;stroke-width:0.8;"/>
   </g>
   <g id="patch_6">
    <path d="M 43.78125 10.999219 
L 1103.98125 10.999219 
" style="fill:none;stroke:#000000;stroke-linecap:square;stroke-linejoin:miter;stroke-width:0.8;"/>
   </g>
   <g id="legend_1">
    <g id="patch_7">
     <path d="M 50.78125 549.599219 
L 174.289062 549.599219 
Q 176.289062 549.599219 176.289062 547.599219 
L 176.289062 489.886719 
Q 176.289062 487.886719 174.289062 487.886719 
L 50.78125 487.886719 
Q 48.78125 487.886719 48.78125 489.886719 
L 48.78125 547.599219 
Q 48.78125 549.599219 50.78125 549.599219 
z
" style="fill:#ffffff;opacity:0.8;stroke:#cccccc;stroke-linejoin:miter;"/>
    </g>
    <g id="line2d_17">
     <path d="M 52.78125 495.985156 
L 72.78125 495.985156 
" style="fill:none;stroke:#1f77b4;stroke-linecap:square;stroke-width:1.5;"/>
    </g>
    <g id="line2d_18"/>
    <g id="text_15">
     <!-- base acc ratio -->
     <g transform="translate(80.78125 499.485156)scale(0.1 -0.1)">
      <use xlink:href="#DejaVuSans-62"/>
      <use x="63.476562" xlink:href="#DejaVuSans-61"/>
      <use x="124.755859" xlink:href="#DejaVuSans-73"/>
      <use x="176.855469" xlink:href="#DejaVuSans-65"/>
      <use x="238.378906" xlink:href="#DejaVuSans-20"/>
      <use x="270.166016" xlink:href="#DejaVuSans-61"/>
      <use x="331.445312" xlink:href="#DejaVuSans-63"/>
      <use x="386.425781" xlink:href="#DejaVuSans-63"/>
      <use x="441.40625" xlink:href="#DejaVuSans-20"/>
      <use x="473.193359" xlink:href="#DejaVuSans-72"/>
      <use x="514.306641" xlink:href="#DejaVuSans-61"/>
      <use x="575.585938" xlink:href="#DejaVuSans-74"/>
      <use x="614.794922" xlink:href="#DejaVuSans-69"/>
      <use x="642.578125" xlink:href="#DejaVuSans-6f"/>
     </g>
    </g>
    <g id="line2d_19">
     <path d="M 52.78125 510.663281 
L 72.78125 510.663281 
" style="fill:none;stroke:#ff7f0e;stroke-linecap:square;stroke-width:1.5;"/>
    </g>
    <g id="line2d_20"/>
    <g id="text_16">
     <!-- methon1 acc ratio -->
     <g transform="translate(80.78125 514.163281)scale(0.1 -0.1)">
      <defs>
       <path d="M 3328 2828 
Q 3544 3216 3844 3400 
Q 4144 3584 4550 3584 
Q 5097 3584 5394 3201 
Q 5691 2819 5691 2113 
L 5691 0 
L 5113 0 
L 5113 2094 
Q 5113 2597 4934 2840 
Q 4756 3084 4391 3084 
Q 3944 3084 3684 2787 
Q 3425 2491 3425 1978 
L 3425 0 
L 2847 0 
L 2847 2094 
Q 2847 2600 2669 2842 
Q 2491 3084 2119 3084 
Q 1678 3084 1418 2786 
Q 1159 2488 1159 1978 
L 1159 0 
L 581 0 
L 581 3500 
L 1159 3500 
L 1159 2956 
Q 1356 3278 1631 3431 
Q 1906 3584 2284 3584 
Q 2666 3584 2933 3390 
Q 3200 3197 3328 2828 
z
" id="DejaVuSans-6d" transform="scale(0.015625)"/>
       <path d="M 3513 2113 
L 3513 0 
L 2938 0 
L 2938 2094 
Q 2938 2591 2744 2837 
Q 2550 3084 2163 3084 
Q 1697 3084 1428 2787 
Q 1159 2491 1159 1978 
L 1159 0 
L 581 0 
L 581 4863 
L 1159 4863 
L 1159 2956 
Q 1366 3272 1645 3428 
Q 1925 3584 2291 3584 
Q 2894 3584 3203 3211 
Q 3513 2838 3513 2113 
z
" id="DejaVuSans-68" transform="scale(0.015625)"/>
      </defs>
      <use xlink:href="#DejaVuSans-6d"/>
      <use x="97.412109" xlink:href="#DejaVuSans-65"/>
      <use x="158.935547" xlink:href="#DejaVuSans-74"/>
      <use x="198.144531" xlink:href="#DejaVuSans-68"/>
      <use x="261.523438" xlink:href="#DejaVuSans-6f"/>
      <use x="322.705078" xlink:href="#DejaVuSans-6e"/>
      <use x="386.083984" xlink:href="#DejaVuSans-31"/>
      <use x="449.707031" xlink:href="#DejaVuSans-20"/>
      <use x="481.494141" xlink:href="#DejaVuSans-61"/>
      <use x="542.773438" xlink:href="#DejaVuSans-63"/>
      <use x="597.753906" xlink:href="#DejaVuSans-63"/>
      <use x="652.734375" xlink:href="#DejaVuSans-20"/>
      <use x="684.521484" xlink:href="#DejaVuSans-72"/>
      <use x="725.634766" xlink:href="#DejaVuSans-61"/>
      <use x="786.914062" xlink:href="#DejaVuSans-74"/>
      <use x="826.123047" xlink:href="#DejaVuSans-69"/>
      <use x="853.90625" xlink:href="#DejaVuSans-6f"/>
     </g>
    </g>
    <g id="line2d_21">
     <path d="M 52.78125 525.341406 
L 72.78125 525.341406 
" style="fill:none;stroke:#2ca02c;stroke-linecap:square;stroke-width:1.5;"/>
    </g>
    <g id="line2d_22"/>
    <g id="text_17">
     <!-- methon2 acc ratio -->
     <g transform="translate(80.78125 528.841406)scale(0.1 -0.1)">
      <use xlink:href="#DejaVuSans-6d"/>
      <use x="97.412109" xlink:href="#DejaVuSans-65"/>
      <use x="158.935547" xlink:href="#DejaVuSans-74"/>
      <use x="198.144531" xlink:href="#DejaVuSans-68"/>
      <use x="261.523438" xlink:href="#DejaVuSans-6f"/>
      <use x="322.705078" xlink:href="#DejaVuSans-6e"/>
      <use x="386.083984" xlink:href="#DejaVuSans-32"/>
      <use x="449.707031" xlink:href="#DejaVuSans-20"/>
      <use x="481.494141" xlink:href="#DejaVuSans-61"/>
      <use x="542.773438" xlink:href="#DejaVuSans-63"/>
      <use x="597.753906" xlink:href="#DejaVuSans-63"/>
      <use x="652.734375" xlink:href="#DejaVuSans-20"/>
      <use x="684.521484" xlink:href="#DejaVuSans-72"/>
      <use x="725.634766" xlink:href="#DejaVuSans-61"/>
      <use x="786.914062" xlink:href="#DejaVuSans-74"/>
      <use x="826.123047" xlink:href="#DejaVuSans-69"/>
      <use x="853.90625" xlink:href="#DejaVuSans-6f"/>
     </g>
    </g>
    <g id="line2d_23">
     <path d="M 52.78125 540.019531 
L 72.78125 540.019531 
" style="fill:none;stroke:#d62728;stroke-linecap:square;stroke-width:1.5;"/>
    </g>
    <g id="line2d_24"/>
    <g id="text_18">
     <!-- methon3 acc ratio -->
     <g transform="translate(80.78125 543.519531)scale(0.1 -0.1)">
      <defs>
       <path d="M 2597 2516 
Q 3050 2419 3304 2112 
Q 3559 1806 3559 1356 
Q 3559 666 3084 287 
Q 2609 -91 1734 -91 
Q 1441 -91 1130 -33 
Q 819 25 488 141 
L 488 750 
Q 750 597 1062 519 
Q 1375 441 1716 441 
Q 2309 441 2620 675 
Q 2931 909 2931 1356 
Q 2931 1769 2642 2001 
Q 2353 2234 1838 2234 
L 1294 2234 
L 1294 2753 
L 1863 2753 
Q 2328 2753 2575 2939 
Q 2822 3125 2822 3475 
Q 2822 3834 2567 4026 
Q 2313 4219 1838 4219 
Q 1578 4219 1281 4162 
Q 984 4106 628 3988 
L 628 4550 
Q 988 4650 1302 4700 
Q 1616 4750 1894 4750 
Q 2613 4750 3031 4423 
Q 3450 4097 3450 3541 
Q 3450 3153 3228 2886 
Q 3006 2619 2597 2516 
z
" id="DejaVuSans-33" transform="scale(0.015625)"/>
      </defs>
      <use xlink:href="#DejaVuSans-6d"/>
      <use x="97.412109" xlink:href="#DejaVuSans-65"/>
      <use x="158.935547" xlink:href="#DejaVuSans-74"/>
      <use x="198.144531" xlink:href="#DejaVuSans-68"/>
      <use x="261.523438" xlink:href="#DejaVuSans-6f"/>
      <use x="322.705078" xlink:href="#DejaVuSans-6e"/>
      <use x="386.083984" xlink:href="#DejaVuSans-33"/>
      <use x="449.707031" xlink:href="#DejaVuSans-20"/>
      <use x="481.494141" xlink:href="#DejaVuSans-61"/>
      <use x="542.773438" xlink:href="#DejaVuSans-63"/>
      <use x="597.753906" xlink:href="#DejaVuSans-63"/>
      <use x="652.734375" xlink:href="#DejaVuSans-20"/>
      <use x="684.521484" xlink:href="#DejaVuSans-72"/>
      <use x="725.634766" xlink:href="#DejaVuSans-61"/>
      <use x="786.914062" xlink:href="#DejaVuSans-74"/>
      <use x="826.123047" xlink:href="#DejaVuSans-69"/>
      <use x="853.90625" xlink:href="#DejaVuSans-6f"/>
     </g>
    </g>
   </g>
  </g>
 </g>
 <defs>
  <clipPath id="p4bebec263c">
   <rect height="543.6" width="1060.2" x="43.78125" y="10.999219"/>
  </clipPath>
 </defs>
</svg>
